<?xml version="1.0" encoding="UTF-8" standalone="no"?>
<svg
   xmlns:dc="http://purl.org/dc/elements/1.1/"
   xmlns:cc="http://creativecommons.org/ns#"
   xmlns:rdf="http://www.w3.org/1999/02/22-rdf-syntax-ns#"
   xmlns:svg="http://www.w3.org/2000/svg"
   xmlns="http://www.w3.org/2000/svg"
   xmlns:sodipodi="http://sodipodi.sourceforge.net/DTD/sodipodi-0.dtd"
   xmlns:inkscape="http://www.inkscape.org/namespaces/inkscape"
   version="1.1"
   width="970"
   height="644"
   id="svg2"
   inkscape:version="0.47 r22583"
   sodipodi:docname="boad.svg">
  <metadata
     id="metadata210">
    <rdf:RDF>
      <cc:Work
         rdf:about="">
        <dc:format>image/svg+xml</dc:format>
        <dc:type
           rdf:resource="http://purl.org/dc/dcmitype/StillImage" />
      </cc:Work>
    </rdf:RDF>
  </metadata>
  <defs
     id="defs208">
    <marker
       inkscape:stockid="Arrow1Lend"
       orient="auto"
       refY="0.0"
       refX="0.0"
       id="Arrow1Lend"
       style="overflow:visible;">
      <path
         id="path3849"
         d="M 0.0,0.0 L 5.0,-5.0 L -12.5,0.0 L 5.0,5.0 L 0.0,0.0 z "
         style="fill-rule:evenodd;stroke:#000000;stroke-width:1.0pt;marker-start:none;"
         transform="scale(0.8) rotate(180) translate(12.5,0)" />
    </marker>
    <inkscape:perspective
       sodipodi:type="inkscape:persp3d"
       inkscape:vp_x="0 : 322 : 1"
       inkscape:vp_y="0 : 1000 : 0"
       inkscape:vp_z="970 : 322 : 1"
       inkscape:persp3d-origin="485 : 214.66667 : 1"
       id="perspective212" />
  </defs>
  <sodipodi:namedview
     pagecolor="#ffffff"
     bordercolor="#666666"
     borderopacity="1"
     objecttolerance="10"
     gridtolerance="10"
     guidetolerance="10"
     inkscape:pageopacity="0"
     inkscape:pageshadow="2"
     inkscape:window-width="1680"
     inkscape:window-height="989"
     id="namedview206"
     showgrid="false"
     inkscape:zoom="1.4658385"
     inkscape:cx="379.36761"
     inkscape:cy="408.98944"
     inkscape:window-x="1271"
     inkscape:window-y="63"
     inkscape:window-maximized="1"
     inkscape:current-layer="svg2" />
  <g
     id="g4" />
  <g
     id="g6">
    <path
       d="M143 1 L150 6 L150 10 L151 13 L147 23 L155 36 L153 42 L160 50 L161 56 L164 61 L155 68 L145 72 L141 77 L143 80 L144 89 L72 138 L1 135 L1 1 L143 1 Z"
       fill="#ff0"
       fill-opacity="0.1"
       stroke="#000"
       stroke-width="3"
       id="path8" />
  </g>
  <g
     id="g10">
    <path
       d="M143 1 L150 6 L150 10 L151 13 L147 23 L155 36 L153 42 L160 50 L161 56 L164 61 L155 68 L145 72 L141 77 L143 80 L144 89 L182 101 L231 48 L232 1 L143 1 Z"
       fill="#ff0"
       fill-opacity="0.1"
       stroke="#000"
       stroke-width="3"
       id="path12" />
  </g>
  <g
     id="g14">
    <path
       d="M182 101 L231 48 L245 53 L253 57 L257 63 L266 64 L269 65 L278 68 L283 75 L289 78 L298 83 L298 93 L303 101 L304 107 L303 112 L303 118 L301 121 L298 125 L299 130 L294 131 L291 133 L284 134 L277 137 L274 137 L273 139 L269 139 L265 142 L261 145 L256 149 L250 148 L243 144 L231 143 L226 139 L221 140 L218 137 L214 133 L213 127 L209 124 L195 121 L189 120 L185 116 L183 111 L182 101 Z"
       fill="#ff0"
       fill-opacity="0.1"
       stroke="#000"
       stroke-width="3"
       id="path16" />
  </g>
  <g
     id="g18">
    <path
       d="M232 1 L231 48 L245 53 L253 57 L257 63 L266 64 L269 65 L278 68 L283 75 L289 78 L298 83 L298 93 L303 101 L304 107 L303 112 L303 118 L301 121 L298 125 L299 130 L305 135 L309 140 L316 142 L322 145 L326 150 L331 145 L337 143 L341 139 L351 143 L358 144 L363 142 L369 145 L372 145 L372 132 L373 128 L372 117 L376 110 L374 107 L366 102 L358 102 L359 95 L357 89 L355 85 L354 83 L352 77 L346 73 L347 69 L351 64 L352 56 L357 56 L360 54 L364 53 L367 48 L374 47 L379 44 L382 38 L383 32 L378 29 L378 24 L378 19 L376 16 L372 14 L369 10 L365 5 L365 1 L232 1 Z"
       fill="#ff0"
       fill-opacity="0.1"
       stroke="#000"
       stroke-width="3"
       id="path20" />
  </g>
  <g
     id="g22">
    <path
       d="M365 1 L365 5 L369 10 L372 14 L376 16 L378 19 L378 24 L378 29 L383 32 L382 38 L379 44 L374 47 L367 48 L364 53 L360 54 L357 56 L352 56 L351 64 L347 69 L346 73 L352 77 L354 83 L355 85 L357 89 L359 95 L358 102 L366 102 L374 107 L376 110 L372 117 L373 128 L372 132 L372 145 L378 144 L381 145 L383 145 L389 151 L401 150 L407 145 L412 144 L413 140 L416 139 L420 139 L422 138 L427 138 L429 137 L433 136 L436 134 L443 131 L444 127 L442 124 L436 121 L435 117 L437 114 L437 110 L441 108 L446 107 L450 105 L458 106 L462 104 L461 100 L460 97 L464 93 L470 92 L475 88 L479 84 L479 78 L476 75 L476 71 L480 66 L481 59 L478 53 L471 49 L461 50 L456 50 L447 43 L445 34 L441 30 L451 22 L450 17 L449 13 L450 9 L445 4 L444 1 L444 1 L365 1 Z"
       fill="#ff0"
       fill-opacity="0.1"
       stroke="#000"
       stroke-width="3"
       id="path24" />
  </g>
  <g
     id="g26">
    <path
       d="M443 131 L444 127 L442 124 L436 121 L435 117 L437 114 L437 110 L441 108 L446 107 L450 105 L458 106 L462 104 L461 100 L460 97 L464 93 L470 92 L475 88 L479 84 L479 78 L476 75 L476 71 L480 66 L481 59 L478 53 L471 49 L461 50 L456 50 L447 43 L445 34 L441 30 L451 22 L450 17 L449 13 L450 9 L445 4 L444 1 L579 1 L583 4 L 579 6 L579 10 L570 13 L563 17 L557 24 L553 33 L552 42 L554 52 L558 60 L563 65 L571 71 L578 73 L 580 74 L576 78 L573 83 L579 89 L580 95 L575 99 L573 104 L561 111 L562 116 L562 123 L564 132 L562 136 L549 137 L545 141 L541 140 L531 146 L530 148 L518 153 L519 156 L515 159 L515 163 L511 164 L503 171 L500 170 L497 170 L494 172 L491 171 L486 169 L483 165 L481 163 L480 158 L481 147 L467 141 L462 138 L454 135 L448 135 L443 131 Z"
       fill="#ff0"
       fill-opacity="0.1"
       stroke="#000"
       stroke-width="3"
       id="path28" />
  </g>
  <g
     id="g30">
    <path
       d="M580 76 L576 78 L573 83 L579 89 L580 95 L575 99 L573 104 L579 107 L581 112 L591 116 L603 123 L602 133 L599 140 L603 145 L616 149 L617 155 L626 158 L628 162 L628 170 L635 172 L641 176 L645 173 L649 175 L658 172 L665 171 L670 165 L675 158 L671 147 L670 144 L665 139 L668 135 L677 135 L681 131 L688 131 L691 127 L695 123 L697 120 L700 120 L700 114 L702 109 L700 103 L690 96 L687 91 L690 87 L696 82 L696 76 L580 76 Z"
       fill="#ff0"
       fill-opacity="0.1"
       stroke="#000"
       stroke-width="3"
       id="path32" />
  </g>
  <g
     id="g34">
    <path
       d="M700 114 L702 109 L700 103 L690 96 L687 91 L690 87 L696 82 L696 76 L764 76 L764 74 L771 72 L779 67 L785 60 L789 53 L791 45 L791 36 L788 27 L782 19 L776 14 L766 10 L766 1 L880 1 L880 4 L872 5 L863 6 L855 8 L848 10 L839 14 L832 19 L823 26 L816 33 L811 40 L806 48 L803 55 L799 64 L797 73 L796 84 L796 93 L797 101 L799 111 L802 119 L806 127 L811 135 L816 142 L823 149 L829 154 L836 159 L847 165 L856 168 L866 170 L876 171 L886 171 L897 169 L905 167 L910 165 L920 160 L929 155 L938 147 L945 139 L951 130 L956 120 L960 109 L962 98 L963 88 L962 78 L960 67 L956 56 L951 45 L944 35 L937 27 L929 21 L920 15 L912 11 L901 7 L890 5 L880 4 L880 1 L969 1 L969 182 L963 181 L957 187 L951 188 L948 191 L933 186 L928 187 L917 182 L913 184 L909 184 L907 186 L885 214 L789 207 L735 156 L732 154 L727 154 L721 156 L719 151 L711 147 L713 144 L712 133 L710 130 L710 126 L704 122 L700 120 L700 114 Z"
       fill="#ff0"
       fill-opacity="0.1"
       stroke="#000"
       stroke-width="3"
       id="path36" />
  </g>
  <g
     id="g38">
    <path
       d="M969 182 L963 181 L957 187 L951 188 L948 191 L933 186 L928 187 L917 182 L913 184 L909 184 L907 186 L885 214 L902 268 L903 275 L907 276 L909 277 L930 277 L935 275 L940 275 L944 273 L950 276 L954 276 L957 275 L961 276 L965 273 L969 273 L969 273 L969 182 Z"
       fill="#ff0"
       fill-opacity="0.1"
       stroke="#000"
       stroke-width="3"
       id="path40" />
  </g>
  <g
     id="g42">
    <path
       d="M789 207 L885 214 L902 268 L903 275 L901 278 L896 277 L892 278 L887 277 L882 282 L877 284 L873 287 L857 281 L852 283 L847 279 L841 278 L838 280 L834 280 L828 286 L811 287 L810 283 L806 281 L806 277 L801 272 L774 231 L789 207 Z"
       fill="#ff0"
       fill-opacity="0.1"
       stroke="#000"
       stroke-width="3"
       id="path44" />
  </g>
  <g
     id="g46">
    <path
       d="M641 176 L645 173 L649 175 L658 172 L665 171 L670 165 L675 158 L671 147 L670 144 L665 139 L668 135 L677 135 L681 131 L688 131 L688 131 L691 127 L695 123 L697 120 L700 120 L704 122 L710 126 L710 130 L712 133 L713 144 L711 147 L719 151 L721 156 L727 154 L732 154 L735 156 L789 207 L774 231 L706 236 L689 236 L684 239 L680 239 L674 244 L665 240 L657 240 L655 239 L651 239 L649 241 L641 241 L633 235 L630 234 L631 224 L634 222 L642 221 L643 216 L646 212 L641 201 L642 195 L642 189 L644 185 L641 176 Z"
       fill="#ff0"
       fill-opacity="0.1"
       stroke="#000"
       stroke-width="3"
       id="path48" />
  </g>
  <g
     id="g50">
    <path
       d="M515 163 L515 159 L519 156 L518 153 L530 148 L531 146 L541 140 L545 141 L549 137 L562 136 L564 132 L562 123 L562 116 L561 111 L573 104 L579 107 L581 112 L591 116 L603 123 L602 133 L599 140 L603 145 L616 149 L617 155 L626 158 L628 162 L628 170 L635 172 L641 176 L644 185 L642 189 L642 195 L641 201 L646 212 L643 216 L642 221 L634 222 L631 224 L630 234 L626 237 L618 232 L615 228 L611 225 L609 220 L606 217 L595 218 L586 215 L579 218 L569 213 L564 214 L559 212 L557 203 L549 199 L543 195 L541 192 L535 193 L527 192 L524 186 L528 177 L526 172 L519 167 L515 163 Z"
       fill="#ff0"
       fill-opacity="0.1"
       stroke="#000"
       stroke-width="3"
       id="path52" />
  </g>
  <g
     id="g54">
    <path
       d="M456 232 L459 212 L457 207 L458 194 L466 184 L476 185 L483 179 L487 176 L486 169 L491 171 L494 172 L497 170 L500 170 L503 171 L511 164 L515 163 L519 167 L526 172 L528 177 L524 186 L527 192 L535 193 L541 192 L543 195 L549 199 L557 203 L559 212 L564 214 L569 213 L579 218 L586 215 L595 218 L597 222 L599 235 L597 238 L593 240 L597 249 L595 252 L588 255 L584 255 L580 250 L575 252 L568 245 L563 246 L561 251 L557 253 L554 258 L549 259 L547 263 L543 266 L530 275 L456 232 Z"
       id="path56"
       stroke-width="3"
       stroke="#000"
       fill-opacity="0.1"
       fill="#ff0" />
  </g>
  <g
     id="g58">
    <path
       d="M389 151 L401 150 L407 145 L412 144 L413 140 L416 139 L420 139 L422 138 L427 138 L429 137 L433 136 L436 134 L443 131 L448 135 L454 135 L462 138 L467 141 L481 147 L480 158 L481 163 L483 165 L486 169 L487 176 L483 179 L476 185 L466 184 L458 194 L457 207 L459 212 L456 232 L440 237 L436 241 L428 242 L424 249 L419 249 L414 250 L411 246 L410 240 L405 237 L402 233 L399 232 L395 226 L400 224 L403 219 L408 218 L408 214 L411 210 L409 204 L411 199 L403 193 L402 186 L404 183 L408 182 L406 179 L408 176 L406 172 L400 171 L397 167 L389 166 L383 163 L383 159 L389 156 L389 151 Z"
       fill="#ff0"
       fill-opacity="0.1"
       stroke="#000"
       stroke-width="3"
       id="path60" />
  </g>
  <g
     id="g62">
    <path
       d="M326 150 L331 145 L337 143 L341 139 L351 143 L358 144 L363 142 L369 145 L372 145 L378 144 L381 145 L383 145 L389 151 L389 156 L383 159 L383 163 L389 166 L397 167 L400 171 L406 172 L408 176 L406 179 L408 182 L404 183 L402 186 L403 193 L411 199 L409 204 L411 210 L408 214 L408 218 L403 219 L400 224 L395 226 L388 233 L384 230 L375 231 L369 227 L350 226 L347 228 L341 229 L340 234 L337 241 L326 241 L323 229 L316 225 L314 219 L310 216 L307 207 L316 202 L320 197 L318 193 L329 190 L331 186 L333 180 L332 175 L336 172 L332 164 L330 161 L326 157 L326 150 Z"
       fill="#ff0"
       fill-opacity="0.1"
       stroke="#000"
       stroke-width="3"
       id="path64" />
  </g>
  <g
     id="g66">
    <path
       d="M221 140 L226 139 L231 143 L243 144 L250 148 L256 149 L261 145 L265 142 L269 139 L273 139 L274 137 L277 137 L284 134 L291 133 L294 131 L299 130 L305 135 L309 140 L316 142 L322 145 L326 150 L326 157 L330 161 L332 164 L336 172 L332 175 L333 180 L331 186 L329 190 L318 193 L320 197 L316 202 L307 207 L310 216 L304 220 L295 220 L285 224 L267 223 L262 228 L256 231 L251 226 L253 222 L253 216 L251 211 L248 208 L245 206 L241 201 L237 200 L232 199 L225 197 L221 193 L220 186 L215 182 L211 176 L205 172 L205 168 L206 165 L201 163 L200 158 L203 153 L208 153 L211 150 L214 149 L217 145 L220 144 L221 140 Z"
       fill="#ff0"
       fill-opacity="0.1"
       stroke="#000"
       stroke-width="3"
       id="path68" />
  </g>
  <g
     id="g70">
    <path
       d="M72 138 L144 89 L182 101 L183 111 L185 116 L189 120 L195 121 L209 124 L213 127 L214 133 L218 137 L221 140 L220 144 L217 145 L214 149 L211 150 L208 153 L203 153 L200 158 L201 163 L206 165 L205 168 L205 172 L202 179 L194 179 L188 184 L190 187 L177 190 L174 192 L123 209 L72 138 Z"
       fill="#ff0"
       fill-opacity="0.1"
       stroke="#000"
       stroke-width="3"
       id="path72" />
  </g>
  <path
     style="fill:#ffff00;fill-opacity:0.1;stroke:#000000;stroke-width:3"
     id="path76"
     d="m -332.59747,72.237287 71,3 c -24.23878,68.161143 6.72374,76.762983 51,71.000003 l -17,51 3,6 4,5 0,4 8,6 0,10 -5,10 -7,4 -11,-1 -8,2 -9,-4 -4,-4 -4,-1 -3,3 -6,-1 -7,-8 -6,4 -5,1 -5,3 -5,-2 -35,0 0,-162.000003 z"
     sodipodi:nodetypes="ccccccccccccccccccccccccc" />
  <g
     id="g78">
    <path
       d="M121 281 L113 275 L113 271 L109 266 L106 260 L123 209 L174 192 L177 190 L190 187 L188 184 L194 179 L202 179 L205 172 L202 179 L211 176 L215 182 L220 186 L221 193 L225 197 L232 199 L237 200 L241 201 L245 206 L248 208 L251 211 L253 216 L253 222 L251 226 L256 231 L255 245 L245 256 L235 258 L230 264 L232 270 L231 274 L228 277 L228 282 L219 278 L210 279 L206 278 L196 278 L195 282 L192 282 L188 280 L175 280 L174 286 L168 287 L165 292 L158 292 L151 296 L141 293 L139 288 L134 284 L130 279 L126 282 L121 281 Z"
       fill="#ff0"
       fill-opacity="0.1"
       stroke="#000"
       stroke-width="3"
       id="path80" />
  </g>
  <g
     id="g82">
    <path
       d="M228 282 L228 277 L231 274 L232 270 L230 264 L235 258 L245 256 L255 245 L256 231 L262 228 L267 223 L285 224 L295 220 L304 220 L310 216 L314 219 L316 225 L323 229 L326 241 L337 241 L340 234 L347 238 L344 303 L286 327 L256 303 L253 298 L248 295 L245 289 L230 289 L228 282 Z"
       fill="#ff0"
       fill-opacity="0.1"
       stroke="#000"
       stroke-width="3"
       id="path84" />
  </g>
  <g
     id="g86">
    <path
       d="M344 303 L347 238 L340 234 L341 229 L347 228 L350 226 L369 227 L375 231 L384 230 L388 233 L395 226 L399 232 L402 233 L405 237 L410 240 L411 246 L414 250 L419 249 L424 249 L429 256 L428 262 L436 268 L442 269 L444 273 L445 277 L452 284 L454 290 L454 293 L452 296 L452 301 L444 305 L410 330 L344 303 Z"
       fill="#ff0"
       fill-opacity="0.1"
       stroke="#000"
       stroke-width="3"
       id="path88" />
  </g>
  <g
     id="g90">
    <path
       d="M454 290 L452 284 L445 277 L444 273 L442 269 L436 268 L428 262 L429 256 L424 249 L428 242 L436 241 L440 237 L456 232 L530 275 L530 308 L524 311 L518 318 L507 321 L504 315 L494 311 L485 301 L483 297 L479 296 L469 291 L465 292 L460 292 L454 290 Z"
       fill="#ff0"
       fill-opacity="0.1"
       stroke="#000"
       stroke-width="3"
       id="path92" />
  </g>
  <g
     id="g94">
    <path
       d="M530 308 L530 275 L543 266 L547 263 L549 259 L554 258 L557 253 L561 251 L563 246 L568 245 L575 252 L580 250 L584 255 L588 255 L590 260 L586 267 L590 272 L595 278 L596 282 L605 288 L605 293 L604 297 L610 304 L618 308 L621 313 L619 318 L621 324 L620 331 L615 333 L615 336 L609 338 L609 347 L611 350 L610 356 L598 355 L597 351 L589 352 L584 349 L574 351 L530 308 Z"
       fill="#ff0"
       fill-opacity="0.1"
       stroke="#000"
       stroke-width="3"
       id="path96" />
  </g>
  <g
     id="g98">
    <path
       d="M620 331 L621 324 L619 318 L621 313 L618 308 L610 304 L604 297 L605 293 L605 288 L596 282 L595 278 L590 272 L586 267 L590 260 L588 255 L595 252 L597 249 L593 240 L597 238 L599 235 L597 222 L595 218 L606 217 L609 220 L611 225 L615 228 L618 232 L626 237 L630 234 L626 237 L630 234 L633 235 L641 241 L649 241 L651 239 L655 239 L657 240 L665 240 L674 244 L676 248 L682 252 L683 261 L685 265 L685 272 L688 280 L690 284 L687 288 L687 295 L678 298 L677 318 L633 337 L626 337 L620 331 Z"
       fill="#ff0"
       fill-opacity="0.1"
       stroke="#000"
       stroke-width="3"
       id="path100" />
  </g>
  <g
     id="g102">
    <path
       d="M677 318 L678 298 L687 295 L687 288 L690 284 L688 280 L685 272 L685 265 L683 261 L682 252 L676 248 L674 244 L680 239 L684 239 L689 236 L706 236 L774 231 L801 272 L806 277 L806 281 L810 283 L811 287 L806 294 L799 295 L795 300 L787 311 L782 312 L779 317 L769 321 L759 320 L754 317 L742 326 L733 324 L724 325 L717 326 L710 331 L701 338 L677 318 Z"
       fill="#ff0"
       fill-opacity="0.1"
       stroke="#000"
       stroke-width="3"
       id="path104" />
  </g>
  <g
     id="g106">
    <path
       d="M769 321 L779 317 L782 312 L787 311 L795 300 L799 295 L806 294 L811 287 L828 286 L834 280 L838 280 L841 278 L847 279 L852 283 L857 281 L873 287 L876 292 L880 296 L877 302 L884 304 L889 306 L896 307 L898 311 L897 316 L891 329 L904 331 L906 334 L906 338 L909 340 L911 349 L899 356 L887 353 L880 354 L877 358 L869 358 L862 362 L855 363 L851 358 L850 355 L847 354 L847 350 L834 347 L830 348 L827 347 L818 347 L814 350 L806 350 L797 345 L791 342 L784 340 L784 335 L779 332 L772 332 L769 321 Z"
       fill="#ff0"
       fill-opacity="0.1"
       stroke="#000"
       stroke-width="3"
       id="path108" />
  </g>
  <g
     id="g110">
    <path
       d="M911 349 L909 340 L906 338 L906 334 L904 331 L891 329 L897 316 L898 311 L896 307 L889 306 L884 304 L877 302 L880 296 L876 292 L873 287 L877 284 L882 282 L887 277 L892 278 L896 277 L901 278 L903 275 L907 276 L909 277 L930 277 L935 275 L940 275 L944 273 L950 276 L954 276 L957 275 L961 276 L965 273 L969 273 L969 357 L964 358 L957 358 L954 359 L948 356 L947 352 L934 352 L930 348 L924 354 L919 353 L911 349 Z"
       fill="#ff0"
       fill-opacity="0.1"
       stroke="#000"
       stroke-width="3"
       id="path112" />
  </g>
  <g
     id="g114">
    <path
       d="M855 363 L862 362 L869 358 L877 358 L880 354 L887 353 L899 356 L911 349 L919 353 L924 354 L930 348 L934 352 L947 352 L948 356 L954 359 L957 358 L964 358 L969 357 L969 447 L957 447 L954 449 L950 455 L948 461 L943 463 L941 467 L937 468 L930 457 L932 451 L930 447 L925 447 L924 442 L920 438 L909 436 L888 433 L874 419 L872 396 L868 393 L867 389 L863 388 L862 383 L858 382 L855 381 L851 382 L849 380 L851 375 L851 370 L855 363 Z"
       fill="#ff0"
       fill-opacity="0.1"
       stroke="#000"
       stroke-width="3"
       id="path116" />
  </g>
  <g
     id="g118">
    <path
       d="M784 340 L791 342 L797 345 L806 350 L814 350 L818 347 L827 347 L830 348 L834 347 L847 350 L847 354 L850 355 L851 358 L855 363 L851 370 L851 375 L849 380 L851 382 L855 381 L858 382 L862 383 L863 388 L867 389 L868 393 L872 396 L874 419 L788 436 L780 416 L780 413 L777 411 L776 406 L780 401 L780 391 L774 390 L773 381 L769 377 L764 373 L763 370 L757 370 L754 362 L754 357 L757 352 L758 348 L766 347 L770 345 L776 348 L781 344 L784 340 Z"
       fill="#ff0"
       fill-opacity="0.1"
       stroke="#000"
       stroke-width="3"
       id="path120" />
  </g>
  <g
     id="g122">
    <path
       d="M701 338 L710 331 L717 326 L724 325 L733 324 L742 326 L754 317 L759 320 L769 321 L772 332 L779 332 L784 335 L784 340 L781 344 L776 348 L770 345 L766 347 L758 348 L757 352 L754 357 L754 362 L757 370 L763 370 L764 373 L769 377 L773 381 L774 390 L780 391 L780 401 L776 406 L777 411 L780 413 L780 416 L788 436 L767 456 L688 412 L701 338 Z"
       fill="#ff0"
       fill-opacity="0.1"
       stroke="#000"
       stroke-width="3"
       id="path124" />
  </g>
  <g
     id="g126">
    <path
       d="M610 356 L611 350 L609 347 L609 338 L615 336 L615 333 L620 331 L626 337 L633 337 L677 318 L701 338 L688 412 L668 419 L647 397 L639 390 L630 385 L625 380 L626 373 L624 368 L620 364 L614 363 L610 356 Z"
       fill="#ff0"
       fill-opacity="0.1"
       stroke="#000"
       stroke-width="3"
       id="path128" />
  </g>
  <g
     id="g130">
    <path
       d="M574 351 L584 349 L589 352 L597 351 L598 355 L610 356 L614 363 L620 364 L624 368 L626 373 L625 380 L630 385 L639 390 L647 397 L668 419 L636 477 L582 493 L544 447 L574 351 Z"
       fill="#ff0"
       fill-opacity="0.1"
       stroke="#000"
       stroke-width="3"
       id="path132" />
  </g>
  <g
     id="g134">
    <path
       d="M507 321 L518 318 L524 311 L530 308 L574 351 L544 447 L469 458 L436 397 L501 342 L503 336 L502 331 L507 327 L507 321 Z"
       fill="#ff0"
       fill-opacity="0.1"
       stroke="#000"
       stroke-width="3"
       id="path136" />
  </g>
  <g
     id="g138">
    <path
       d="M410 330 L410 330 L444 305 L444 305 L452 301 L452 296 L454 293 L454 290 L454 293 L460 292 L465 292 L469 291 L479 296 L483 297 L485 301 L494 311 L504 315 L507 321 L507 327 L502 331 L503 336 L501 342 L436 397 L412 389 L410 330 Z"
       fill="#ff0"
       fill-opacity="0.1"
       stroke="#000"
       stroke-width="3"
       id="path140" />
  </g>
  <g
     id="g142">
    <path
       d="M286 327 L344 303 L410 330 L412 389 L339 411 L279 383 L286 327 Z"
       fill="#ff0"
       fill-opacity="0.1"
       stroke="#000"
       stroke-width="3"
       id="path144" />
  </g>
  <g
     id="g146">
    <path
       d="M165 292 L168 287 L174 286 L175 280 L188 280 L192 282 L195 282 L196 278 L206 278 L210 279 L219 278 L228 282 L230 289 L245 289 L248 295 L253 298 L256 303 L286 327 L279 383 L189 442 L168 434 L164 432 L163 427 L152 427 L158 419 L157 408 L154 406 L147 406 L148 400 L144 396 L137 394 L136 389 L137 385 L135 379 L138 374 L144 374 L147 372 L153 369 L154 358 L158 353 L166 350 L170 346 L176 343 L178 339 L182 336 L183 323 L185 319 L185 315 L180 314 L177 310 L175 304 L170 301 L167 297 L165 292 Z"
       fill="#ff0"
       fill-opacity="0.1"
       stroke="#000"
       stroke-width="3"
       id="path148" />
  </g>
  <path
     style="fill:#ffff00;fill-opacity:0.5;stroke:#000000;stroke-width:4.20000000000000020;stroke-linecap:round;stroke-linejoin:round;stroke-miterlimit:4;stroke-dasharray:none;stroke-opacity:1"
     id="path152"
     d="m -205.44825,352.45285 6,1 3,-3 4,1 4,4 9,4 8,-2 11,1 7,-4 5,-10 0,-10 5,1 4,-3 4,5 5,4 2,5 10,3 7,-4 7,0 2,5 3.000004,4 5,3 2,6 3,4 5,1 0,4 -2,4 -1,13 -4,3 -2,4 -6,3 -4.000004,4 -8,3 -4,5 -1,11 -6,3 -3,2 -6,0 -3,5 2,6 -1,4 1,5 -5,1 -4,3 -9,2 -6,-3 -11,10 -8,0 -5,-4 0,-4 2,-4 -1,-4 -5,-6 -1,-9 -5,-3 -5,-2 -1,-5 2,-5 -2,-3 -6,-1 0,-9 -5,-2 -3,-5 1,-5 3,-4 -5,-8 -1,-4 4,-6 -1,-8 4,-7 z" />
  <g
     id="g154">
    <path
       d="M1 297 L36 297 L41 299 L46 296 L51 295 L57 291 L64 299 L60 306 L61 314 L57 320 L58 324 L63 332 L60 336 L59 341 L62 346 L67 348 L67 357 L73 358 L75 361 L73 366 L74 371 L79 373 L84 376 L85 385 L90 391 L91 395 L89 399 L89 403 L82 405 L78 412 L73 416 L62 417 L60 420 L58 424 L1 494 L1 297 Z"
       fill="#ff0"
       fill-opacity="0.1"
       stroke="#000"
       stroke-width="3"
       id="path156" />
  </g>
  <g
     id="g158">
    <path
       d="M1 494 L58 424 L60 420 L62 417 L73 416 L78 412 L82 405 L89 403 L94 407 L102 407 L113 397 L119 400 L128 398 L132 395 L137 394 L144 396 L148 400 L147 406 L154 406 L157 408 L158 419 L152 427 L163 427 L164 432 L168 434 L189 442 L189 464 L188 472 L190 474 L185 480 L181 488 L188 488 L189 494 L185 498 L181 505 L182 512 L178 520 L1 520 L1 494 Z"
       fill="#ff0"
       fill-opacity="0.1"
       stroke="#000"
       stroke-width="3"
       id="path160"
       style="marker-mid:none;stroke-width:3;stroke-miterlimit:0;stroke-dasharray:none" />
  </g>
  <g
     id="g162">
    <path
       d="M178 520 L182 512 L181 505 L185 498 L189 494 L188 488 L181 488 L185 480 L190 474 L188 472 L189 464 L189 442 L279 383 L339 411 L338 431 L339 437 L336 439 L334 444 L334 449 L337 453 L333 458 L333 467 L325 473 L318 476 L318 483 L316 487 L311 489 L307 496 L298 501 L290 503 L287 507 L283 514 L277 517 L275 521 L280 530 L290 544 L287 549 L281 553 L279 560 L275 561 L273 565 L273 591 L225 591 L225 520 L178 520 Z"
       fill="#ff0"
       fill-opacity="0.1"
       stroke="#000"
       stroke-width="3"
       id="path164" />
  </g>
  <g
     id="g166">
    <path
       d="M333 467 L333 458 L337 453 L334 449 L334 444 L336 439 L339 437 L338 431 L339 411 L412 389 L436 397 L469 458 L449 486 L418 475 L405 477 L399 483 L390 484 L387 485 L379 486 L375 482 L370 482 L366 477 L353 477 L351 471 L347 469 L343 472 L338 471 L333 467 Z"
       fill="#ff0"
       fill-opacity="0.1"
       stroke="#000"
       stroke-width="3"
       id="path168" />
  </g>
  <g
     id="g170">
    <path
       d="M273 591 L273 565 L275 561 L279 560 L281 553 L287 549 L290 544 L280 530 L275 521 L277 517 L283 514 L287 507 L290 503 L298 501 L307 496 L311 489 L316 487 L318 483 L318 476 L325 473 L333 467 L338 471 L343 472 L347 469 L351 471 L353 477 L366 477 L370 482 L375 482 L379 486 L387 485 L390 484 L399 483 L405 477 L418 475 L449 486 L452 544 L452 548 L449 550 L446 555 L442 555 L438 553 L429 553 L423 552 L420 556 L416 557 L411 563 L411 568 L402 574 L389 591 L273 591 Z"
       id="path172"
       stroke-width="3"
       stroke="#000"
       fill-opacity="0.1"
       fill="#ff0" />
  </g>
  <g
     id="g174">
    <path
       d="M389 591 L402 574 L411 568 L411 563 L416 557 L420 556 L423 552 L429 553 L438 553 L442 555 L446 555 L449 550 L452 548 L452 544 L449 486 L469 458 L544 447 L582 493 L559 590 L557 594 L557 598 L550 606 L550 613 L548 618 L549 623 L555 642 L524 642 L524 591 L389 591 Z"
       id="path176"
       stroke-width="3"
       stroke="#000"
       fill-opacity="0.1"
       fill="#ff0" />
  </g>
  <g
     id="g178">
    <path
       d="M555 642 L555 642 L549 623 L548 618 L550 613 L550 606 L557 598 L557 594 L559 590 L582 493 L636 477 L713 517 L717 560 L713 565 L713 568 L710 571 L708 577 L714 586 L718 588 L719 596 L716 602 L710 605 L702 604 L696 602 L693 606 L688 616 L686 617 L683 625 L682 632 L677 642 L555 642 Z"
       fill="#ff0"
       fill-opacity="0.1"
       stroke="#000"
       stroke-width="3"
       id="path180" />
  </g>
  <g
     id="g182">
    <path
       d="M713 517 L636 477 L668 419 L688 412 L767 456 L770 484 L713 517 Z"
       fill="#ff0"
       fill-opacity="0.1"
       stroke="#000"
       stroke-width="3"
       id="path184" />
  </g>
  <g
     id="g186">
    <path
       d="M770 484 L767 456 L788 436 L874 419 L888 433 L855 505 L770 484 Z"
       fill="#ff0"
       fill-opacity="0.1"
       stroke="#000"
       stroke-width="3"
       id="path188" />
  </g>
  <g
     id="g190">
    <path
       d="M855 505 L888 433 L909 436 L920 438 L924 442 L925 447 L930 447 L932 451 L930 457 L937 468 L934 474 L936 483 L936 491 L941 498 L941 508 L942 515 L940 520 L936 524 L925 524 L922 527 L917 527 L910 525 L903 528 L900 532 L898 539 L897 544 L881 551 L878 548 L855 505 Z"
       fill="#ff0"
       fill-opacity="0.1"
       stroke="#000"
       stroke-width="3"
       id="path192" />
  </g>
  <g
     id="g194">
    <path
       d="M719 596 L718 588 L714 586 L708 577 L710 571 L713 568 L713 565 L717 560 L713 517 L770 484 L855 505 L878 548 L881 551 L876 561 L880 568 L879 574 L867 577 L859 577 L851 576 L844 578 L837 582 L822 583 L815 587 L807 588 L800 591 L792 599 L780 601 L760 605 L757 609 L741 609 L736 607 L734 604 L734 599 L730 597 L719 596 Z"
       fill="#ff0"
       fill-opacity="0.1"
       stroke="#000"
       stroke-width="3"
       id="path196" />
  </g>
  <g
     id="g198">
    <path
       d="M677 642 L682 632 L683 625 L686 617 L688 616 L693 606 L696 602 L702 604 L710 605 L716 602 L719 596 L730 597 L734 599 L734 604 L736 607 L741 609 L757 609 L760 605 L780 601 L792 599 L800 591 L807 588 L815 587 L822 583 L837 582 L844 578 L851 576 L859 577 L867 577 L868 585 L868 589 L866 595 L871 600 L872 605 L878 610 L880 615 L879 620 L880 626 L883 632 L884 636 L886 643 L677 642 Z"
       fill="#ff0"
       fill-opacity="0.1"
       stroke="#000"
       stroke-width="3"
       id="path200" />
  </g>
  <g
     id="g202">
    <path
       d="M886 643 L884 636 L883 632 L880 626 L879 620 L880 615 L878 610 L872 605 L871 600 L866 595 L868 589 L868 585 L867 577 L879 574 L880 568 L876 561 L881 551 L897 544 L898 539 L900 532 L903 528 L910 525 L917 527 L922 527 L925 524 L936 524 L940 520 L942 515 L941 508 L941 498 L936 491 L936 483 L934 474 L937 468 L941 467 L943 463 L948 461 L950 455 L954 449 L957 447 L969 447 L969 643 L886 643 Z"
       fill="#ff0"
       fill-opacity="0.1"
       stroke="#000"
       stroke-width="3"
       id="path204" />
  </g>
  <path
     style="fill:none;stroke:#000000;stroke-width:1.1843996px;stroke-linecap:butt;stroke-linejoin:miter;stroke-opacity:1"
     d="M -289.22461,444.0222 C -301.99356,39.897282 -281.16,50.583277 -281.16,50.583277"
     id="path3803" />
</svg>
